<?xml version="1.0" encoding="UTF-8"?>
<svg version="1.1" xmlns="http://www.w3.org/2000/svg" width="368" height="368">
<path d="M0 0 C121.44 0 242.88 0 368 0 C368 121.44 368 242.88 368 368 C246.56 368 125.12 368 0 368 C0 246.56 0 125.12 0 0 Z " fill="#F6F6F6" transform="translate(0,0)"/>
<path d="M0 0 C1.64556293 0.39695597 3.29134864 0.79299131 4.9375 1.1875 C6.4534375 1.5896875 6.4534375 1.5896875 8 2 C8 2.66 8 3.32 8 4 C9.32064453 4.1546875 9.32064453 4.1546875 10.66796875 4.3125 C19.76116482 6.18870458 28.4355703 13.77235614 34 21 C35.24609375 24.27734375 35.24609375 24.27734375 36 27 C36.66 27 37.32 27 38 27 C44.92685542 44.75278983 44.92685542 44.75278983 46 52 C46.10957031 52.6909375 46.21914063 53.381875 46.33203125 54.09375 C48.16570061 68.37192211 47.1846391 82.83751202 45 97 C44.76603516 98.72476563 44.76603516 98.72476563 44.52734375 100.484375 C43.76788836 105.71759703 43.10812426 109.60127869 40 114 C37.06028115 115.54335239 35.33156142 116 32 116 C32 116.66 32 117.32 32 118 C27.9811485 119.81242323 24.38889325 121.33501617 20 122 C20 122.66 20 123.32 20 124 C15.6255847 126.31101186 11.37046147 128.27364249 6.6875 129.875 C1.6217112 131.65296487 -2.92842339 133.98287397 -7.58984375 136.6328125 C-13.52571429 140 -13.52571429 140 -17 140 C-17.10508102 132.75733821 -16.84111822 125.65095344 -16.16015625 118.44140625 C-16.07374374 117.48983139 -15.98733124 116.53825653 -15.89830017 115.55784607 C-15.71656379 113.56869987 -15.53242403 111.57977186 -15.34594727 109.59106445 C-15.0609815 106.54627523 -14.7848247 103.50077668 -14.50976562 100.45507812 C-14.33124485 98.51297336 -14.1522263 96.57091428 -13.97265625 94.62890625 C-13.89032242 93.7216127 -13.80798859 92.81431915 -13.72315979 91.87953186 C-13.64315231 91.03442551 -13.56314484 90.18931915 -13.48071289 89.31860352 C-13.41187393 88.57900894 -13.34303497 87.83941437 -13.27210999 87.07740784 C-12.99901843 84.99250627 -12.51097389 83.0373471 -12 81 C-11.71921177 76.23279673 -11.72252127 71.46206626 -11.6875 66.6875 C-11.65849609 65.38103516 -11.62949219 64.07457031 -11.59960938 62.72851562 C-11.55221597 55.55752909 -11.67435793 50.81753018 -16 45 C-16.37125 43.8553125 -16.37125 43.8553125 -16.75 42.6875 C-18.90543337 39.77766495 -22.59206521 39.59618804 -26 39 C-28.90391299 38.76623533 -31.7759899 38.76306417 -34.6875 38.8125 C-35.42033203 38.81314453 -36.15316406 38.81378906 -36.90820312 38.81445312 C-40.72257556 38.84540836 -44.29231331 39.08587606 -48 40 C-48 40.99 -48 41.98 -48 43 C-48.99 43 -49.98 43 -51 43 C-51 43.99 -51 44.98 -51 46 C-53.375 48.6875 -53.375 48.6875 -56 51 C-56.66 51 -57.32 51 -58 51 C-58.103125 51.825 -58.20625 52.65 -58.3125 53.5 C-59 57 -59 57 -60.44921875 60.66796875 C-62.10134692 65.00784312 -62.88916486 69.2215186 -63.5 73.8125 C-63.62181641 74.68849854 -63.74363281 75.56449707 -63.86914062 76.46704102 C-65.14620765 86.19157898 -65.89784002 95.96548526 -66.68548584 105.73913574 C-67.49456615 115.76981088 -68.51864398 125.70454101 -70.015625 135.66040039 C-70.95955306 142.10660061 -71.43134735 148.50461192 -71.53369141 155.01977539 C-71.68206056 160.04683607 -72.45639418 164.62657542 -75 169 C-77.26171875 170.4375 -77.26171875 170.4375 -79.6875 171 C-80.49574219 171.20625 -81.30398437 171.4125 -82.13671875 171.625 C-82.75160156 171.74875 -83.36648437 171.8725 -84 172 C-84 172.66 -84 173.32 -84 174 C-85.56621094 174.67482422 -85.56621094 174.67482422 -87.1640625 175.36328125 C-97.14473798 179.71115036 -106.90919293 184.36499931 -116.56103516 189.40551758 C-121.04459458 191.70625917 -124.88558843 193.60202427 -130 194 C-130 194.66 -130 195.32 -130 196 C-131.32 196 -132.64 196 -134 196 C-134.4516083 186.49949943 -133.53893193 177.46986872 -132.27807617 168.07397461 C-131.13357643 159.42113342 -130.27868919 150.75430966 -129.5 142.0625 C-128.51556721 131.12294796 -127.38782628 120.21407579 -126.00195312 109.31665039 C-125.39084635 104.47464207 -124.87350017 99.64762643 -124.49609375 94.78125 C-123.18499721 78.3527326 -118.97762458 62.04491007 -113.4375 46.5625 C-113.14456055 45.72678467 -112.85162109 44.89106934 -112.54980469 44.0300293 C-112.26395508 43.25828369 -111.97810547 42.48653809 -111.68359375 41.69140625 C-111.43150146 41.00248291 -111.17940918 40.31355957 -110.91967773 39.60375977 C-110 38 -110 38 -107 37 C-106.731875 36.13375 -106.46375 35.2675 -106.1875 34.375 C-104.87316768 30.63952919 -103.2010559 28.6517655 -100.53515625 25.80859375 C-98.8898638 23.98283936 -98.8898638 23.98283936 -97.59375 21.53515625 C-92.93097541 14.11814471 -83.97129995 9.18851998 -76 6 C-75.34 6 -74.68 6 -74 6 C-74 5.34 -74 4.68 -74 4 C-68.6973145 2.34584368 -63.37234472 0.78767614 -58 -0.625 C-57.0925 -0.86476563 -56.185 -1.10453125 -55.25 -1.3515625 C-37.58730745 -4.87560933 -17.35943742 -4.75759983 0 0 Z " fill="#F69E21" transform="translate(226,31)"/>
<path d="M0 0 C0.24060855 8.52942295 -0.50613843 16.93869285 -1.3203125 25.41796875 C-1.42492105 26.52114158 -1.42492105 26.52114158 -1.53164291 27.64660072 C-1.90285408 31.56025381 -2.27959349 35.47332705 -2.66113281 39.38598633 C-2.96873325 42.54861616 -3.26720587 45.71187744 -3.55664062 48.8762207 C-5.07139962 65.40905868 -6.84970044 81.80075276 -9.9921875 98.11328125 C-10.22962677 99.35756393 -10.46706604 100.60184662 -10.71170044 101.88383484 C-13.77188101 116.96356429 -20.04901472 130.36423739 -27 144 C-27.66 144 -28.32 144 -29 144 C-29.24878906 144.56332031 -29.49757812 145.12664062 -29.75390625 145.70703125 C-35.33003416 155.96780581 -46.45984729 165.82847541 -57.5 169.4375 C-58.4796875 169.70433594 -59.459375 169.97117187 -60.46875 170.24609375 C-63.20966358 170.92735957 -63.20966358 170.92735957 -66 173 C-78.50784979 176.93473116 -91.18686537 177.4297163 -104.1875 177.5 C-104.94078583 177.51017151 -105.69407166 177.52034302 -106.47018433 177.53082275 C-120.61017948 177.68411537 -134.98915709 176.03670706 -147.625 169.1875 C-148.28830322 168.83768066 -148.95160645 168.48786133 -149.63500977 168.12744141 C-154.7064494 165.35640327 -158.58609463 162.65378144 -162 158 C-162.72445312 157.02546875 -163.44890625 156.0509375 -164.1953125 155.046875 C-173.40791436 142.00794068 -178.2107031 127.63726044 -178.09765625 111.66015625 C-178.0962413 110.89319931 -178.09482635 110.12624237 -178.09336853 109.33604431 C-178.08781766 106.9114881 -178.07527463 104.48702781 -178.0625 102.0625 C-178.05747864 100.40820447 -178.05291685 98.75390747 -178.04882812 97.09960938 C-178.03786438 93.06636988 -178.02063424 89.03320114 -178 85 C-173.32499657 82.27631865 -168.60252826 79.74653863 -163.73046875 77.390625 C-163.05580566 77.06234207 -162.38114258 76.73405914 -161.68603516 76.39582825 C-159.5213421 75.34412209 -157.35465559 74.29662146 -155.1875 73.25 C-154.45133453 72.89372528 -153.71516907 72.53745056 -152.95669556 72.17037964 C-144.4114194 68.03747 -135.8593554 63.92496702 -127.1875 60.0625 C-126.49100342 59.75151367 -125.79450684 59.44052734 -125.0769043 59.12011719 C-122.07721704 57.80806572 -119.18484726 56.74173587 -116 56 C-115.83231053 63.03566705 -116.48365451 69.72249259 -117.4375 76.6875 C-119.04106557 89.03411438 -120.06830932 101.17083465 -120.125 113.625 C-120.13213013 114.9248584 -120.13213013 114.9248584 -120.1394043 116.25097656 C-120.137229 117.06791992 -120.13505371 117.88486328 -120.1328125 118.7265625 C-120.13112061 119.81831787 -120.13112061 119.81831787 -120.12939453 120.93212891 C-119.99608792 123.06251943 -119.58158914 124.95028811 -119 127 C-118.34 127 -117.68 127 -117 127 C-114 130.46153846 -114 130.46153846 -114 133 C-102.88463832 137.50622771 -93.38230907 136.39047504 -82 133 C-82 132.34 -82 131.68 -82 131 C-80.47165147 129.76431395 -78.94234618 128.52972509 -77.40234375 127.30859375 C-75.65976986 125.68251505 -75.17525656 124.36596356 -75 122 C-74.34 122 -73.68 122 -73 122 C-72.87882812 121.35933594 -72.75765625 120.71867187 -72.6328125 120.05859375 C-72.46523437 119.19363281 -72.29765625 118.32867187 -72.125 117.4375 C-71.96257812 116.59058594 -71.80015625 115.74367188 -71.6328125 114.87109375 C-71 112 -71 112 -70.02294922 108.81640625 C-68.9741947 104.90372592 -68.40806464 101.08225191 -68 97.06640625 C-67.91933289 96.31900177 -67.83866577 95.57159729 -67.7555542 94.80154419 C-67.49725743 92.38916219 -67.24827397 89.97593235 -67 87.5625 C-66.82477407 85.90142431 -66.64931702 84.24037298 -66.47363281 82.5793457 C-65.12735572 69.7344416 -63.96817186 56.8792336 -63 44 C-62.34 44 -61.68 44 -61 44 C-61.04640625 42.95199219 -61.0928125 41.90398437 -61.140625 40.82421875 C-61.17814548 39.44534099 -61.21454536 38.06643242 -61.25 36.6875 C-61.28351563 35.99720703 -61.31703125 35.30691406 -61.3515625 34.59570312 C-61.44981659 29.511054 -61.44981659 29.511054 -59.421875 27.20703125 C-56.9738717 25.98697799 -54.49867667 24.87550694 -51.96728516 23.83935547 C-48.28437421 22.2680167 -44.75204802 20.38274296 -41.1875 18.5625 C-35.56290972 15.71328759 -29.98342086 12.99402064 -24.04296875 10.8515625 C-21.52897156 9.8036631 -19.32676031 8.41478123 -17 7 C-14.96818963 5.93923667 -12.92609484 4.89797712 -10.875 3.875 C-9.84117187 3.35679687 -8.80734375 2.83859375 -7.7421875 2.3046875 C-2.89820359 0 -2.89820359 0 0 0 Z " fill="#1F1F1F" transform="translate(282,145)"/>
<path d="M0 0 C1.40185547 0.00966797 1.40185547 0.00966797 2.83203125 0.01953125 C4.28416016 0.04466797 4.28416016 0.04466797 5.765625 0.0703125 C6.74917969 0.07933594 7.73273438 0.08835937 8.74609375 0.09765625 C11.16951907 0.12118465 13.59244722 0.15405882 16.015625 0.1953125 C16.015625 0.8553125 16.015625 1.5153125 16.015625 2.1953125 C16.64210937 2.32808594 17.26859375 2.46085937 17.9140625 2.59765625 C18.73132813 2.77425781 19.54859375 2.95085937 20.390625 3.1328125 C21.20273438 3.30683594 22.01484375 3.48085937 22.8515625 3.66015625 C25.015625 4.1953125 25.015625 4.1953125 27.015625 5.1953125 C27.796875 6.8671875 27.796875 6.8671875 28.515625 8.9453125 C29.29510067 11.16512364 30.070345 13.31555642 31.0456543 15.45874023 C32.87228749 20.61220902 32.35118218 26.09461559 32.328125 31.5078125 C32.32401611 33.45482056 32.32401611 33.45482056 32.31982422 35.44116211 C32.22384847 44.45240217 31.51184325 53.19817842 30.23046875 62.1105957 C28.47483573 74.41141362 27.78547664 86.8002865 27.015625 99.1953125 C28.005625 98.5353125 28.995625 97.8753125 30.015625 97.1953125 C32.3417107 96.81468029 34.67617764 96.48261305 37.015625 96.1953125 C38.35479761 95.88627267 39.69215754 95.56588339 41.015625 95.1953125 C38.88898176 97.52070744 36.91967469 98.91066706 34.078125 100.2578125 C33.40910156 100.57878906 32.74007812 100.89976562 32.05078125 101.23046875 C31.37917969 101.54886719 30.70757812 101.86726563 30.015625 102.1953125 C28.99275391 102.75025391 28.99275391 102.75025391 27.94921875 103.31640625 C26.015625 104.1953125 26.015625 104.1953125 23.015625 104.1953125 C22.91054398 96.95265071 23.17450678 89.84626594 23.85546875 82.63671875 C23.94188126 81.68514389 24.02829376 80.73356903 24.11732483 79.75315857 C24.29906121 77.76401237 24.48320097 75.77508436 24.66967773 73.78637695 C24.9546435 70.74158773 25.2308003 67.69608918 25.50585938 64.65039062 C25.68438015 62.70828586 25.8633987 60.76622678 26.04296875 58.82421875 C26.1664695 57.46327843 26.1664695 57.46327843 26.29246521 56.07484436 C26.41247643 54.80718483 26.41247643 54.80718483 26.53491211 53.51391602 C26.60375107 52.77432144 26.67259003 52.03472687 26.74351501 51.27272034 C27.01660657 49.18781877 27.50465111 47.2326596 28.015625 45.1953125 C28.29641323 40.42810923 28.29310373 35.65737876 28.328125 30.8828125 C28.35712891 29.57634766 28.38613281 28.26988281 28.41601562 26.92382812 C28.46340903 19.75284159 28.34126707 15.01284268 24.015625 9.1953125 C23.768125 8.4321875 23.520625 7.6690625 23.265625 6.8828125 C21.11019163 3.97297745 17.42355979 3.79150054 14.015625 3.1953125 C11.11171201 2.96154783 8.2396351 2.95837667 5.328125 3.0078125 C4.59529297 3.00845703 3.86246094 3.00910156 3.10742188 3.00976562 C-0.70695056 3.04072086 -4.27668831 3.28118856 -7.984375 4.1953125 C-7.984375 5.1853125 -7.984375 6.1753125 -7.984375 7.1953125 C-8.974375 7.1953125 -9.964375 7.1953125 -10.984375 7.1953125 C-10.984375 8.1853125 -10.984375 9.1753125 -10.984375 10.1953125 C-13.359375 12.8828125 -13.359375 12.8828125 -15.984375 15.1953125 C-16.644375 15.1953125 -17.304375 15.1953125 -17.984375 15.1953125 C-18.1390625 16.4328125 -18.1390625 16.4328125 -18.296875 17.6953125 C-18.984375 21.1953125 -18.984375 21.1953125 -20.42578125 24.76953125 C-22.268997 29.59059031 -22.95730981 34.40804433 -23.609375 39.5078125 C-23.73417236 40.42973389 -23.85896973 41.35165527 -23.98754883 42.30151367 C-24.82235226 48.58386647 -25.5548374 54.87074164 -25.984375 61.1953125 C-26.314375 61.1953125 -26.644375 61.1953125 -26.984375 61.1953125 C-27.98750284 24.58886279 -27.98750284 24.58886279 -20.984375 13.1953125 C-20.200625 12.8859375 -19.416875 12.5765625 -18.609375 12.2578125 C-15.3095787 10.92218067 -14.11109114 8.982044 -11.984375 6.1953125 C-11.324375 6.1953125 -10.664375 6.1953125 -9.984375 6.1953125 C-9.901875 5.5765625 -9.819375 4.9578125 -9.734375 4.3203125 C-8.984375 2.1953125 -8.984375 2.1953125 -7.24902344 1.07470703 C-4.66419809 0.07098335 -2.76684469 -0.03374201 0 0 Z " fill="#E4A33A" transform="translate(185.984375,66.8046875)"/>
<path d="M0 0 C0.66 0.33 1.32 0.66 2 1 C3.78321259 6.34963776 3.18469399 12.08951193 3.1875 17.6875 C3.19974609 18.92306641 3.21199219 20.15863281 3.22460938 21.43164062 C3.235691 28.55712707 2.81897091 35.45737268 1.85163879 42.51737976 C1.05905353 48.32240717 0.46870747 54.13496395 -0.0703125 59.96875 C-0.15739975 60.9102742 -0.244487 61.8517984 -0.33421326 62.82185364 C-0.59976666 65.71439385 -0.86245639 68.60718521 -1.125 71.5 C-1.30835391 73.49871993 -1.49194618 75.49741801 -1.67578125 77.49609375 C-2.11992804 82.33048237 -2.56087519 87.16515274 -3 92 C3.08923576 89.26711186 9.12557763 86.48733736 15.0625 83.4375 C29.82382642 76 29.82382642 76 34 76 C34 75.34 34 74.68 34 74 C35.6232687 73.3291288 37.24867578 72.66342971 38.875 72 C39.77992188 71.62875 40.68484375 71.2575 41.6171875 70.875 C44 70 44 70 46 70 C46 69.34 46 68.68 46 68 C46.62648438 67.79246094 47.25296875 67.58492188 47.8984375 67.37109375 C52.71019903 65.73500472 52.71019903 65.73500472 56.04296875 62.17578125 C56.66050657 60.05177916 56.66050657 60.05177916 57 57 C57.33 57 57.66 57 58 57 C58 59.97 58 62.94 58 66 C50.25 70 50.25 70 48 70 C48 70.66 48 71.32 48 72 C45.33333333 73.33333333 42.66666667 74.66666667 40 76 C38.94619141 76.54720703 38.94619141 76.54720703 37.87109375 77.10546875 C36 78 36 78 33.8125 78.4375 C32.9153125 78.7159375 32.9153125 78.7159375 32 79 C31.505 80.485 31.505 80.485 31 82 C28.36 82 25.72 82 23 82 C22.67 82.99 22.34 83.98 22 85 C19.8203125 85.84375 19.8203125 85.84375 17.125 86.5 C13.41102315 87.40954535 11.58983972 88.2188653 9 91 C7.01643517 91.71408334 5.01684563 92.38617742 3 93 C2.505 93.495 2.505 93.495 2 94 C-0.33297433 94.04092937 -2.66705225 94.04241723 -5 94 C-5.85472766 89.69473516 -6.04020087 85.85269446 -5.765625 81.4765625 C-5.68747559 80.21851807 -5.60932617 78.96047363 -5.52880859 77.66430664 C-5.43651216 76.31782709 -5.34356295 74.97139214 -5.25 73.625 C-5.20498352 72.94468719 -5.15996704 72.26437439 -5.11358643 71.56344604 C-4.2538098 58.64235607 -2.82562118 45.82142172 -1 33 C-0.34 33 0.32 33 1 33 C1.02920143 28.81251481 1.04686646 24.62505609 1.0625 20.4375 C1.07087891 19.25607422 1.07925781 18.07464844 1.08789062 16.85742188 C1.10392999 11.13136928 1.0510705 5.63605518 0 0 Z " fill="#FBE8C4" transform="translate(212,79)"/>
<path d="M0 0 C1.64556293 0.39695597 3.29134864 0.79299131 4.9375 1.1875 C5.948125 1.455625 6.95875 1.72375 8 2 C8 2.66 8 3.32 8 4 C9.32064453 4.1546875 9.32064453 4.1546875 10.66796875 4.3125 C19.76116482 6.18870458 28.4355703 13.77235614 34 21 C35.24609375 24.27734375 35.24609375 24.27734375 36 27 C36.66 27 37.32 27 38 27 C38 28.32 38 29.64 38 31 C37.34 31 36.68 31 36 31 C36 30.34 36 29.68 36 29 C35.34 29 34.68 29 34 29 C32.7109375 27.609375 32.7109375 27.609375 31.375 25.75 C30.92898438 25.14671875 30.48296875 24.5434375 30.0234375 23.921875 C29 22 29 22 29 18 C28.236875 17.9175 27.47375 17.835 26.6875 17.75 C23.37009715 16.82421316 22.99224942 15.70945922 21 13 C19.02583732 11.94991347 17.02417134 10.95012124 15 10 C12.625 8.4375 12.625 8.4375 11 7 C11 6.34 11 5.68 11 5 C10.14535156 4.93941406 9.29070312 4.87882812 8.41015625 4.81640625 C6.75306641 4.69072266 6.75306641 4.69072266 5.0625 4.5625 C3.96035156 4.48128906 2.85820312 4.40007813 1.72265625 4.31640625 C-1 4 -1 4 -2 3 C-10.12940928 1.64509845 -18.53354354 1.65548145 -26.75 1.375 C-28.0184375 1.3234375 -29.286875 1.271875 -30.59375 1.21875 C-45.76013952 0.09304779 -45.76013952 0.09304779 -60 4 C-61.84637602 4.44993413 -63.70181276 4.8634924 -65.5625 5.25 C-71.1258898 6.57623596 -75.6233654 8.69077316 -80.52734375 11.59765625 C-84.07680813 13.61070161 -86.88675958 15 -91 15 C-86.7976162 11.21785458 -79.90556785 6 -74 6 C-74 5.34 -74 4.68 -74 4 C-68.6973145 2.34584368 -63.37234472 0.78767614 -58 -0.625 C-57.0925 -0.86476563 -56.185 -1.10453125 -55.25 -1.3515625 C-37.58730745 -4.87560933 -17.35943742 -4.75759983 0 0 Z " fill="#EAA032" transform="translate(226,31)"/>
<path d="M0 0 C-1.65 0.33 -3.3 0.66 -5 1 C-5 1.66 -5 2.32 -5 3 C-5.90621094 3.4125 -6.81242187 3.825 -7.74609375 4.25 C-18.2949498 9.19232904 -26.49554741 14.39883205 -32 25 C-33.33333333 26.33333333 -34.66666667 27.66666667 -36 29 C-36.69313908 30.65583225 -37.36474424 32.32110979 -38 34 C-38.99 34.495 -38.99 34.495 -40 35 C-49.44308716 55.17838624 -53.35962374 77.28316526 -55.26205444 99.2902832 C-56.50121494 113.57306826 -58.09072642 127.78992953 -60 142 C-60.33 142 -60.66 142 -61 142 C-61.24638024 135.66255263 -60.88457233 129.52866216 -60.0546875 123.24609375 C-58.80543111 113.22894899 -58.339145 103.20524762 -57.89550781 93.12597656 C-57.52600186 84.90531665 -57.15435292 76.98666957 -55 69 C-54.75378906 67.88753906 -54.50757812 66.77507812 -54.25390625 65.62890625 C-53.09285683 60.47961928 -51.89147929 55.3423771 -50.5 50.25 C-50.2834375 49.45078125 -50.066875 48.6515625 -49.84375 47.828125 C-49.5653125 47.22484375 -49.286875 46.6215625 -49 46 C-47.515 45.505 -47.515 45.505 -46 45 C-46 43.02 -46 41.04 -46 39 C-45.01 39 -44.02 39 -43 39 C-42.896875 37.7625 -42.79375 36.525 -42.6875 35.25 C-42.22858106 31.68552005 -41.66009424 29.56509087 -39 27 C-38.13375 26.505 -37.2675 26.01 -36.375 25.5 C-33.83418336 24.23119477 -33.83418336 24.23119477 -33.1875 21.8125 C-33.0946875 20.9153125 -33.0946875 20.9153125 -33 20 C-32.01 20 -31.02 20 -30 20 C-30 18.68 -30 17.36 -30 16 C-29.34 16 -28.68 16 -28 16 C-28 15.01 -28 14.02 -28 13 C-27.01 13 -26.02 13 -25 13 C-25 12.34 -25 11.68 -25 11 C-24.34 11 -23.68 11 -23 11 C-23 10.34 -23 9.68 -23 9 C-21.68 8.67 -20.36 8.34 -19 8 C-19 7.01 -19 6.02 -19 5 C-7.0430622 -2.3476874 -7.0430622 -2.3476874 0 0 Z " fill="#FDE9C2" transform="translate(157,34)"/>
<path d="M0 0 C1 2 1 2 0.1875 4.5625 C-0.204375 5.696875 -0.59625 6.83125 -1 8 C-1.34989646 9.5171083 -1.68245658 11.03829158 -2 12.5625 C-2.70757854 15.88867627 -3.69011773 18.85628256 -5 22 C-5.35613097 23.66194453 -5.69208308 25.328451 -6 27 C-6.33 27.99 -6.66 28.98 -7 30 C-7.1464714 31.55266653 -7.24694074 33.10995662 -7.31640625 34.66796875 C-7.35830078 35.56064453 -7.40019531 36.45332031 -7.44335938 37.37304688 C-7.48267578 38.30181641 -7.52199219 39.23058594 -7.5625 40.1875 C-7.60568359 41.12787109 -7.64886719 42.06824219 -7.69335938 43.03710938 C-7.79938665 45.35792854 -7.90145029 47.67885325 -8 50 C-9.485 50.495 -9.485 50.495 -11 51 C-11.01981934 51.92522461 -11.03963867 52.85044922 -11.06005859 53.80371094 C-11.83476401 88.25884147 -11.83476401 88.25884147 -14 105 C-14.09458496 105.74910645 -14.18916992 106.49821289 -14.28662109 107.27001953 C-14.82597809 111.51802821 -15.396205 115.76058832 -16 120 C-16.99 120 -17.98 120 -19 120 C-19.66 121.65 -20.32 123.3 -21 125 C-25.455 125.495 -25.455 125.495 -30 126 C-27.7766654 124.18839403 -26.15959741 123.04559926 -23.375 122.25 C-20.72778743 121.1860236 -20.72778743 121.1860236 -19.91015625 118.24609375 C-18.45241562 112.55596871 -18.38882202 106.65138939 -18.0625 100.8125 C-17.53701065 92.44828167 -16.89361751 84.20381121 -15.5 75.9375 C-14.19563949 68.16141144 -13.51976888 60.4287382 -13 52.5625 C-11.85520349 35.77843916 -10.63989909 19.61557296 -4 4 C-3.34 4 -2.68 4 -2 4 C-1.34 2.68 -0.68 1.36 0 0 Z " fill="#FDF0D6" transform="translate(172,78)"/>
<path d="M0 0 C11.5964349 14.70203285 10.38947279 38.66694791 8.38208008 56.41455078 C7.97495769 59.61817482 7.49230653 62.80849561 7 66 C6.76603516 67.72476563 6.76603516 67.72476563 6.52734375 69.484375 C5.76788836 74.71759703 5.10812426 78.60127869 2 83 C-0.93971885 84.54335239 -2.66843858 85 -6 85 C-6 85.66 -6 86.32 -6 87 C-10.0188515 88.81242323 -13.61110675 90.33501617 -18 91 C-18 91.66 -18 92.32 -18 93 C-19.28913487 93.67154933 -20.58140204 94.33708859 -21.875 95 C-22.59429687 95.37125 -23.31359375 95.7425 -24.0546875 96.125 C-26 97 -26 97 -28 97 C-28 96.01 -28 95.02 -28 94 C-26.68 94 -25.36 94 -24 94 C-24 93.34 -24 92.68 -24 92 C-23.1028125 91.5978125 -23.1028125 91.5978125 -22.1875 91.1875 C-19.99556112 90.13168678 -19.99556112 90.13168678 -18.5625 88.5625 C-14.66839573 84.66839573 -10.21430947 83.40385255 -5 82 C-4.67 81.67 -4.34 81.34 -4 81 C-2.00041636 80.95919217 0.00045254 80.95745644 2 81 C2 79.35 2 77.7 2 76 C2.66 76 3.32 76 4 76 C4 54.88 4 33.76 4 12 C3.34 12 2.68 12 2 12 C0.86235649 7.73383684 0 4.43513689 0 0 Z " fill="#E8A236" transform="translate(264,62)"/>
<path d="M0 0 C0.33 0 0.66 0 1 0 C1.50252789 9.52941774 0.39729064 18.65660146 -0.85595703 28.0859375 C-1.86569887 35.7209819 -2.6071383 43.30532951 -3 51 C-1.68 51 -0.36 51 1 51 C1 50.34 1 49.68 1 49 C2.08619629 48.56627075 2.08619629 48.56627075 3.19433594 48.1237793 C11.83771491 44.6065932 20.08008767 40.50489137 28.3515625 36.19726562 C33.87725659 33.37404788 38.89992508 31.18936867 45 30 C44 33 44 33 41 35 C40.01 35 39.02 35 38 35 C38 35.66 38 36.32 38 37 C37.195625 37.12375 36.39125 37.2475 35.5625 37.375 C34.716875 37.58125 33.87125 37.7875 33 38 C32.505 38.99 32.505 38.99 32 40 C31.01 40 30.02 40 29 40 C29 40.66 29 41.32 29 42 C27.3603125 42.1546875 27.3603125 42.1546875 25.6875 42.3125 C22.10898203 42.62003564 22.10898203 42.62003564 20.5625 44.4375 C18.3371976 46.6628024 15.95797016 46.91816553 12.9375 47.5703125 C10.79924432 48.00951642 10.79924432 48.00951642 8 49 C7.67 49.99 7.34 50.98 7 52 C2.94636242 53.79114218 -0.58698079 54.40118356 -5 54 C-7 52 -7 52 -7.07519531 50.16259766 C-6.99366211 49.42058105 -6.91212891 48.67856445 -6.828125 47.9140625 C-6.74175781 47.07528564 -6.65539062 46.23650879 -6.56640625 45.37231445 C-6.40978516 44.0123938 -6.40978516 44.0123938 -6.25 42.625 C-6.04679629 40.71485212 -5.84367334 38.80469565 -5.640625 36.89453125 C-5.53298828 35.91693848 -5.42535156 34.9393457 -5.31445312 33.93212891 C-5.013623 31.12702812 -4.74240053 28.32104794 -4.484375 25.51171875 C-2.3434169 2.3434169 -2.3434169 2.3434169 0 0 Z " fill="#FCE9C0" transform="translate(95,176)"/>
<path d="M0 0 C1.40185547 0.00966797 1.40185547 0.00966797 2.83203125 0.01953125 C4.28416016 0.04466797 4.28416016 0.04466797 5.765625 0.0703125 C6.74917969 0.07933594 7.73273438 0.08835937 8.74609375 0.09765625 C11.16951907 0.12118465 13.59244722 0.15405882 16.015625 0.1953125 C16.015625 0.8553125 16.015625 1.5153125 16.015625 2.1953125 C16.64210937 2.32808594 17.26859375 2.46085937 17.9140625 2.59765625 C18.73132813 2.77425781 19.54859375 2.95085937 20.390625 3.1328125 C21.20273438 3.30683594 22.01484375 3.48085937 22.8515625 3.66015625 C25.015625 4.1953125 25.015625 4.1953125 27.015625 5.1953125 C30.17620588 12.2141581 30.40009274 19.25473094 30.203125 26.8203125 C30.18282227 28.32658203 30.18282227 28.32658203 30.16210938 29.86328125 C30.12718652 32.30788114 30.07815248 34.75128984 30.015625 37.1953125 C29.685625 37.1953125 29.355625 37.1953125 29.015625 37.1953125 C29.00160645 36.29607056 29.00160645 36.29607056 28.98730469 35.37866211 C28.93320224 32.62924983 28.84963703 29.88146698 28.765625 27.1328125 C28.75144531 26.18986328 28.73726562 25.24691406 28.72265625 24.27539062 C28.50562459 18.04658184 27.50585997 14.3624963 24.015625 9.1953125 C23.768125 8.4321875 23.520625 7.6690625 23.265625 6.8828125 C21.11019163 3.97297745 17.42355979 3.79150054 14.015625 3.1953125 C11.11171201 2.96154783 8.2396351 2.95837667 5.328125 3.0078125 C4.59529297 3.00845703 3.86246094 3.00910156 3.10742188 3.00976562 C-0.70695056 3.04072086 -4.27668831 3.28118856 -7.984375 4.1953125 C-7.984375 5.1853125 -7.984375 6.1753125 -7.984375 7.1953125 C-8.974375 7.1953125 -9.964375 7.1953125 -10.984375 7.1953125 C-10.984375 8.1853125 -10.984375 9.1753125 -10.984375 10.1953125 C-13.359375 12.8828125 -13.359375 12.8828125 -15.984375 15.1953125 C-16.644375 15.1953125 -17.304375 15.1953125 -17.984375 15.1953125 C-18.1390625 16.4328125 -18.1390625 16.4328125 -18.296875 17.6953125 C-18.984375 21.1953125 -18.984375 21.1953125 -20.42578125 24.76953125 C-22.268997 29.59059031 -22.95730981 34.40804433 -23.609375 39.5078125 C-23.73417236 40.42973389 -23.85896973 41.35165527 -23.98754883 42.30151367 C-24.82235226 48.58386647 -25.5548374 54.87074164 -25.984375 61.1953125 C-26.314375 61.1953125 -26.644375 61.1953125 -26.984375 61.1953125 C-27.98750284 24.58886279 -27.98750284 24.58886279 -20.984375 13.1953125 C-20.200625 12.8859375 -19.416875 12.5765625 -18.609375 12.2578125 C-15.3095787 10.92218067 -14.11109114 8.982044 -11.984375 6.1953125 C-11.324375 6.1953125 -10.664375 6.1953125 -9.984375 6.1953125 C-9.901875 5.5765625 -9.819375 4.9578125 -9.734375 4.3203125 C-8.984375 2.1953125 -8.984375 2.1953125 -7.24902344 1.07470703 C-4.66419809 0.07098335 -2.76684469 -0.03374201 0 0 Z " fill="#E3AE55" transform="translate(185.984375,66.8046875)"/>
<path d="M0 0 C1.48468902 3.93937488 0.53866883 7.10988652 -0.375 11.125 C-0.65085937 12.36507812 -0.92671875 13.60515625 -1.2109375 14.8828125 C-2 18 -2 18 -3 20 C-4.88228769 29.77524195 -5.54669696 39.73631615 -6.30249023 49.64697266 C-6.90486733 57.43805352 -6.90486733 57.43805352 -7.50390625 60.9765625 C-8.31323848 65.90902821 -8.53249142 70.89139019 -8.875 75.875 C-9.79658094 88.6480755 -11.27357667 101.31303738 -13 114 C-15 112 -15 112 -15.18286133 110.13427734 C-15.1495874 109.3758252 -15.11631348 108.61737305 -15.08203125 107.8359375 C-15.04609863 106.97436035 -15.01016602 106.1127832 -14.97314453 105.22509766 C-14.89362549 103.81429932 -14.89362549 103.81429932 -14.8125 102.375 C-14.73684814 100.89652588 -14.73684814 100.89652588 -14.65966797 99.38818359 C-14.19864535 91.43522944 -13.29471729 83.5785205 -12.2277832 75.68701172 C-11.15924276 67.67776012 -10.39046566 59.65776801 -9.6857605 51.61053467 C-8.68787949 40.27301951 -7.6193413 29.09806218 -5 18 C-4.83322754 17.28875977 -4.66645508 16.57751953 -4.49462891 15.84472656 C-1.42139149 2.84278298 -1.42139149 2.84278298 0 0 Z " fill="#E5AD57" transform="translate(110,86)"/>
<path d="M0 0 C0.495 0.99 0.495 0.99 1 2 C0.48050781 2.25394531 -0.03898437 2.50789062 -0.57421875 2.76953125 C-1.27160156 3.11371094 -1.96898437 3.45789063 -2.6875 3.8125 C-3.37199219 4.14894531 -4.05648437 4.48539063 -4.76171875 4.83203125 C-6.35161344 5.66166216 -7.90695805 6.5590239 -9.43359375 7.5 C-12.02966418 9.01733797 -14.57390744 10.10080162 -17.375 11.1875 C-23.02384589 13.48474388 -28.32971886 16.20132271 -33.65966797 19.14526367 C-37.68850677 21.3588813 -41.74881444 23.24727049 -46 25 C-46.33 29.95 -46.66 34.9 -47 40 C-47.33 40 -47.66 40 -48 40 C-48.33 34.06 -48.66 28.12 -49 22 C-50.32 22.33 -51.64 22.66 -53 23 C-52 21 -52 21 -49.0625 20 C-48.051875 19.67 -47.04125 19.34 -46 19 C-45.34 18.34 -44.68 17.68 -44 17 C-41.49363378 16.17887487 -38.96374344 15.53704728 -36.41015625 14.87890625 C-33.84940239 13.94508191 -32.86578628 12.90795094 -31 11 C-27.8125 10.8125 -27.8125 10.8125 -25 11 C-24.67 10.34 -24.34 9.68 -24 9 C-20.9736711 6.9824474 -17.98805979 5.52274961 -14.6875 4 C-13.57761719 3.484375 -12.46773437 2.96875 -11.32421875 2.4375 C-2.63768116 -1.31884058 -2.63768116 -1.31884058 0 0 Z " fill="#F3F3ED" transform="translate(268,149)"/>
<path d="M0 0 C0.33 0 0.66 0 1 0 C1.61415333 16.19545072 1.61415333 16.19545072 -2 22 C-4.91227946 23.51293951 -7.79106931 24.35417747 -11 25 C-11 25.66 -11 26.32 -11 27 C-12.13695312 27.49628906 -13.27390625 27.99257812 -14.4453125 28.50390625 C-16.00558805 29.18924033 -17.56545489 29.87550536 -19.125 30.5625 C-19.93582031 30.91948975 -20.74664062 31.27647949 -21.58203125 31.64428711 C-27.97456871 34.48492704 -34.19263216 37.57758437 -40.375 40.84765625 C-41.24125 41.22792969 -42.1075 41.60820312 -43 42 C-43.66 41.67 -44.32 41.34 -45 41 C-45 40.34 -45 39.68 -45 39 C-43.68 39 -42.36 39 -41 39 C-41 38.01 -41 37.02 -41 36 C-39.68 36 -38.36 36 -37 36 C-37 35.01 -37 34.02 -37 33 C-36.22914062 32.90203125 -35.45828125 32.8040625 -34.6640625 32.703125 C-33.66117188 32.55359375 -32.65828125 32.4040625 -31.625 32.25 C-30.62726563 32.11078125 -29.62953125 31.9715625 -28.6015625 31.828125 C-25.8650738 31.28131693 -25.8650738 31.28131693 -24.8828125 29.03125 C-24.59148437 28.3609375 -24.30015625 27.690625 -24 27 C-19.66039517 24.38059888 -15.01863809 23.62360214 -10 24 C-9.505 22.515 -9.505 22.515 -9 21 C-7.35 20.34 -5.7 19.68 -4 19 C-3.34 13.72 -2.68 8.44 -2 3 C-1.34 3 -0.68 3 0 3 C0 2.01 0 1.02 0 0 Z " fill="#E6A644" transform="translate(153,178)"/>
<path d="M0 0 C3.16252908 0.98147454 3.97313878 1.9524763 5.625 4.875 C8.91912927 13.55134049 9.32511031 22.82466459 9 32 C9.66 32 10.32 32 11 32 C11.22673326 36.37424917 11.42813881 40.74931272 11.625 45.125 C11.68945312 46.3625 11.75390625 47.6 11.8203125 48.875 C11.871875 50.07382813 11.9234375 51.27265625 11.9765625 52.5078125 C12.02893066 53.60754395 12.08129883 54.70727539 12.13525391 55.84033203 C11.98932836 59.2493002 11.19973375 61.82070557 10 65 C9.4378483 67.11967291 8.89572265 69.24477097 8.375 71.375 C8.11460937 72.43460937 7.85421875 73.49421875 7.5859375 74.5859375 C7.39257812 75.38257813 7.19921875 76.17921875 7 77 C6.67 77 6.34 77 6 77 C5.90744334 71.75319462 6.20882311 66.8905869 7 61.6875 C9.54546907 43.00668385 9.57651624 22.9448732 1.2421875 5.7578125 C0 3 0 3 0 0 Z " fill="#FEEECC" transform="translate(264,59)"/>
<path d="M0 0 C1 2 1 2 0.1875 4.5625 C-0.204375 5.696875 -0.59625 6.83125 -1 8 C-1.34989646 9.5171083 -1.68245658 11.03829158 -2 12.5625 C-2.70757854 15.88867627 -3.69011773 18.85628256 -5 22 C-5.35613097 23.66194453 -5.69208308 25.328451 -6 27 C-6.33 27.99 -6.66 28.98 -7 30 C-7.1464714 31.55266653 -7.24694074 33.10995662 -7.31640625 34.66796875 C-7.37924805 36.00698242 -7.37924805 36.00698242 -7.44335938 37.37304688 C-7.50233398 38.76620117 -7.50233398 38.76620117 -7.5625 40.1875 C-7.60568359 41.12787109 -7.64886719 42.06824219 -7.69335938 43.03710938 C-7.79938665 45.35792854 -7.90145029 47.67885325 -8 50 C-8.99 50.495 -8.99 50.495 -10 51 C-10.05893685 47.0625648 -10.09390669 43.12524573 -10.125 39.1875 C-10.14175781 38.08728516 -10.15851563 36.98707031 -10.17578125 35.85351562 C-10.23131215 26.44102744 -9.31423459 17.63986879 -5.875 8.8125 C-5.52179688 7.89082031 -5.16859375 6.96914062 -4.8046875 6.01953125 C-4.53914062 5.35308594 -4.27359375 4.68664062 -4 4 C-3.34 4 -2.68 4 -2 4 C-1.34 2.68 -0.68 1.36 0 0 Z " fill="#FDEBCA" transform="translate(172,78)"/>
<path d="M0 0 C-2.66797151 2.10665019 -5.25521448 3.72536094 -8.3359375 5.15625 C-9.15320313 5.53910156 -9.97046875 5.92195312 -10.8125 6.31640625 C-11.658125 6.70699219 -12.50375 7.09757813 -13.375 7.5 C-15.04974161 8.28068724 -16.72422667 9.06192513 -18.3984375 9.84375 C-19.13755371 10.18599609 -19.87666992 10.52824219 -20.63818359 10.88085938 C-23.44602076 12.21134579 -26.22091473 13.61045736 -29 15 C-29.33 23.58 -29.66 32.16 -30 41 C-30.33 41 -30.66 41 -31 41 C-31 33.08 -31 25.16 -31 17 C-31.99 16.67 -32.98 16.34 -34 16 C-32.37660195 14.29115995 -30.70680947 12.62553283 -29 11 C-28.34 11 -27.68 11 -27 11 C-27 10.34 -27 9.68 -27 9 C-26.43410156 8.73445312 -25.86820313 8.46890625 -25.28515625 8.1953125 C-24.55167969 7.84210938 -23.81820312 7.48890625 -23.0625 7.125 C-22.33160156 6.77695313 -21.60070312 6.42890625 -20.84765625 6.0703125 C-18.83667541 5.1315023 -18.83667541 5.1315023 -18 3 C-15.36 3 -12.72 3 -10 3 C-10 2.34 -10 1.68 -10 1 C-6.21812119 -0.83691257 -4.05431692 -1.15837626 0 0 Z " fill="#EDEDEB" transform="translate(134,215)"/>
<path d="M0 0 C2.78458926 2.78458926 2.71691658 5.68288063 3.125 9.4375 C3.2502002 10.5656311 3.2502002 10.5656311 3.37792969 11.71655273 C4.82044693 26.0018893 4.09865983 39.83021649 2 54 C1.65438074 56.66528987 1.32648089 59.33226876 1 62 C0.67 62 0.34 62 0 62 C0 41.54 0 21.08 0 0 Z " fill="#E9B463" transform="translate(269,74)"/>
<path d="M0 0 C0.66 0 1.32 0 2 0 C1.9071875 1.175625 1.9071875 1.175625 1.8125 2.375 C1.874375 3.24125 1.93625 4.1075 2 5 C2.99 5.66 3.98 6.32 5 7 C3.91460937 7.47050781 2.82921875 7.94101563 1.7109375 8.42578125 C0.26558788 9.05460219 -1.17972254 9.68351323 -2.625 10.3125 C-3.69427734 10.7755957 -3.69427734 10.7755957 -4.78515625 11.24804688 C-7.9994766 12.64878281 -11.12249172 14.0654082 -14.21875 15.71875 C-17.07289639 17.03358148 -18.77286611 17.32850609 -21.875 17.1875 C-23.04675781 17.14689453 -23.04675781 17.14689453 -24.2421875 17.10546875 C-24.82226562 17.07066406 -25.40234375 17.03585938 -26 17 C-25.67 16.34 -25.34 15.68 -25 15 C-23.35 15 -21.7 15 -20 15 C-20 14.34 -20 13.68 -20 13 C-19.030625 12.7525 -18.06125 12.505 -17.0625 12.25 C-16.051875 11.8375 -15.04125 11.425 -14 11 C-13.26404798 8.97445397 -13.26404798 8.97445397 -13 7 C-12.22914063 6.82984375 -11.45828125 6.6596875 -10.6640625 6.484375 C-9.66117188 6.24203125 -8.65828125 5.9996875 -7.625 5.75 C-6.62726563 5.51796875 -5.62953125 5.2859375 -4.6015625 5.046875 C-1.864798 4.2376588 -1.864798 4.2376588 -0.6484375 1.890625 C-0.43445313 1.26671875 -0.22046875 0.6428125 0 0 Z " fill="#ECEFEB" transform="translate(153,198)"/>
<path d="M0 0 C0.33 0 0.66 0 1 0 C0.57324089 12.72297288 -0.01415326 25.42762712 -0.9375 38.125 C-1.01210449 39.21989746 -1.08670898 40.31479492 -1.16357422 41.44287109 C-1.55593992 46.58213962 -2.00795565 51.18241994 -4 56 C-2.989375 55.566875 -1.97875 55.13375 -0.9375 54.6875 C-0.30199219 54.41808594 0.33351562 54.14867187 0.98828125 53.87109375 C2.30706378 53.30004811 3.6175862 52.70944519 4.91796875 52.09765625 C9.68125 49.89375 9.68125 49.89375 13 51 C11.25048432 51.95921722 9.50036756 52.91733817 7.75 53.875 C6.77546875 54.40867188 5.8009375 54.94234375 4.796875 55.4921875 C3.87390625 55.98976562 2.9509375 56.48734375 2 57 C0.92492187 57.59167969 0.92492187 57.59167969 -0.171875 58.1953125 C-2 59 -2 59 -5 59 C-5.10508102 51.75733821 -4.84111822 44.65095344 -4.16015625 37.44140625 C-4.07374374 36.48983139 -3.98733124 35.53825653 -3.89830017 34.55784607 C-3.71656379 32.56869987 -3.53242403 30.57977186 -3.34594727 28.59106445 C-3.0609815 25.54627523 -2.7848247 22.50077668 -2.50976562 19.45507812 C-2.33124485 17.51297336 -2.1522263 15.57091428 -1.97265625 13.62890625 C-1.89032242 12.7216127 -1.80798859 11.81431915 -1.72315979 10.87953186 C-1.64315231 10.03442551 -1.56314484 9.18931915 -1.48071289 8.31860352 C-1.41187393 7.57900894 -1.34303497 6.83941437 -1.27210999 6.07740784 C-0.99912495 3.99331945 -0.55056654 2.02684783 0 0 Z " fill="#E3AE5F" transform="translate(214,112)"/>
<path d="M0 0 C0.33 0 0.66 0 1 0 C1.50252789 9.52941774 0.39729064 18.65660146 -0.85595703 28.0859375 C-1.86569887 35.7209819 -2.6071383 43.30532951 -3 51 C-1.68 51 -0.36 51 1 51 C1 50.34 1 49.68 1 49 C2.98 48.505 2.98 48.505 5 48 C5 48.66 5 49.32 5 50 C4.34 50 3.68 50 3 50 C3 50.66 3 51.32 3 52 C-0.465 52.495 -0.465 52.495 -4 53 C-3.98259766 51.12054688 -3.98259766 51.12054688 -3.96484375 49.203125 C-3.95546284 47.55208483 -3.94636296 45.90104304 -3.9375 44.25 C-3.92912109 43.425 -3.92074219 42.6 -3.91210938 41.75 C-3.90727539 40.55117187 -3.90727539 40.55117187 -3.90234375 39.328125 C-3.89710693 38.5949707 -3.89187012 37.86181641 -3.88647461 37.10644531 C-3.929331 34.99691371 -3.929331 34.99691371 -4.52294922 33.00537109 C-5.06910722 30.70949505 -4.96790373 28.93020054 -4.73046875 26.5859375 C-4.64724365 25.74651611 -4.56401855 24.90709473 -4.47827148 24.04223633 C-4.38231689 23.16204834 -4.2863623 22.28186035 -4.1875 21.375 C-4.093479 20.47869873 -3.99945801 19.58239746 -3.90258789 18.65893555 C-2.09455141 2.09455141 -2.09455141 2.09455141 0 0 Z " fill="#FBE6C1" transform="translate(95,176)"/>
<path d="M0 0 C0.66 0 1.32 0 2 0 C1.71040663 1.93781097 1.41818419 3.87522905 1.125 5.8125 C0.96257812 6.89144531 0.80015625 7.97039062 0.6328125 9.08203125 C0.14217454 12.11974651 -0.39825931 15.13341509 -0.96875 18.15625 C-2.09761507 24.30598228 -2.88009425 30.48121891 -3.625 36.6875 C-3.7590625 37.78255859 -3.893125 38.87761719 -4.03125 40.00585938 C-4.35702564 42.67023872 -4.67989702 45.33493425 -5 48 C-5.33 48 -5.66 48 -6 48 C-6.96459255 12.79979172 -6.96459255 12.79979172 0 0 Z " fill="#E4A747" transform="translate(165,80)"/>
<path d="M0 0 C12.49443863 0.53167824 20.71969471 4.74372839 30 13 C30.62390625 13.54140625 31.2478125 14.0828125 31.890625 14.640625 C35.29379644 17.77947245 36.9288585 20.50120569 38 25 C38.66 25 39.32 25 40 25 C40 26.32 40 27.64 40 29 C39.34 29 38.68 29 38 29 C38 28.34 38 27.68 38 27 C37.34 27 36.68 27 36 27 C34.7109375 25.609375 34.7109375 25.609375 33.375 23.75 C32.92898438 23.14671875 32.48296875 22.5434375 32.0234375 21.921875 C31 20 31 20 31 16 C30.236875 15.9175 29.47375 15.835 28.6875 15.75 C25.37009715 14.82421316 24.99224942 13.70945922 23 11 C21.02583732 9.94991347 19.02417134 8.95012124 17 8 C14.625 6.4375 14.625 6.4375 13 5 C13 4.34 13 3.68 13 3 C12.14535156 2.95101562 11.29070312 2.90203125 10.41015625 2.8515625 C8.75306641 2.73941406 8.75306641 2.73941406 7.0625 2.625 C5.96035156 2.55539063 4.85820312 2.48578125 3.72265625 2.4140625 C2.82417969 2.27742188 1.92570313 2.14078125 1 2 C0.67 1.34 0.34 0.68 0 0 Z " fill="#E0A84B" transform="translate(224,33)"/>
<path d="M0 0 C0.75821045 0.00491455 1.5164209 0.0098291 2.29760742 0.01489258 C7.71881973 0.12884498 11.8949989 0.58735232 16.6875 3.3125 C19.1875 6 19.1875 6 20.6875 8.3125 C20.3575 8.9725 20.0275 9.6325 19.6875 10.3125 C16.6875 9.3125 16.6875 9.3125 15.3125 7.875 C11.28298451 4.00046588 6.26049114 3.92748496 0.9375 3.9375 C0.23173828 3.93621094 -0.47402344 3.93492188 -1.20117188 3.93359375 C-6.97955386 4.05032874 -11.42920239 5.27400371 -16.3125 8.3125 C-16.3125 7.3225 -16.3125 6.3325 -16.3125 5.3125 C-15.3225 5.3125 -14.3325 5.3125 -13.3125 5.3125 C-13.3125 4.3225 -13.3125 3.3325 -13.3125 2.3125 C-8.92595137 0.14085561 -4.80323327 -0.03623298 0 0 Z " fill="#FCE9C1" transform="translate(191.3125,68.6875)"/>
<path d="M0 0 C0.33 0.99 0.66 1.98 1 3 C-0.375 4.5 -0.375 4.5 -2 6 C-2.66 6 -3.32 6 -4 6 C-4.268125 6.53625 -4.53625 7.0725 -4.8125 7.625 C-5.204375 8.40875 -5.59625 9.1925 -6 10 C-6.474375 10.99 -6.94875 11.98 -7.4375 13 C-9 16 -9 16 -10.625 18.125 C-12.07556603 20.10304459 -12.57247824 21.60587817 -13 24 C-13.66 24 -14.32 24 -15 24 C-15.33 24.99 -15.66 25.98 -16 27 C-16.66 27 -17.32 27 -18 27 C-17.9175 27.86625 -17.835 28.7325 -17.75 29.625 C-18.05628741 33.75988007 -19.52108722 35.74642697 -22 39 C-23.63166258 34.97058936 -22.27379498 32.22269804 -20.75 28.3125 C-20.09257813 26.57419922 -20.09257813 26.57419922 -19.421875 24.80078125 C-18 22 -18 22 -15 21 C-14.731875 20.13375 -14.46375 19.2675 -14.1875 18.375 C-12.85540962 14.58905893 -11.11001452 12.58646871 -8.44921875 9.66796875 C-6.83818032 7.91517849 -6.83818032 7.91517849 -5.375 5.25 C-3.88131916 2.80579499 -2.37812453 1.55808159 0 0 Z " fill="#E2A84D" transform="translate(134,47)"/>
<path d="M0 0 C-0.33 0.66 -0.66 1.32 -1 2 C-2.66128463 2.35919668 -4.32900023 2.68911632 -6 3 C-6.61746094 3.32226562 -7.23492187 3.64453125 -7.87109375 3.9765625 C-10.20204246 5.09712867 -12.20051075 5.47714977 -14.75 5.875 C-19.75414783 6.82469229 -23.5813195 8.54160685 -28 11 C-28.93585938 11.45632812 -29.87171875 11.91265625 -30.8359375 12.3828125 C-36.59419013 15.26949558 -39.41993217 16.9368406 -42 23 C-44.21829272 24.92521532 -46.51732529 26.40734075 -49 28 C-48.22976993 24.22031427 -46.97047577 22.52040369 -44 20 C-43.34 20 -42.68 20 -42 20 C-41.9175 19.236875 -41.835 18.47375 -41.75 17.6875 C-40.82102719 14.35868078 -39.85694614 13.84191328 -37 12 C-35.41746574 11.30283667 -33.81095369 10.65819246 -32.1875 10.0625 C-29.08327657 8.8797229 -26.2974327 7.66243325 -23.5 5.875 C-19.71686537 3.84832074 -16.53231115 3.14041967 -12.33203125 2.4921875 C-0.43098842 -0.01959038 -0.43098842 -0.01959038 0 0 Z " fill="#E9A12E" transform="translate(176,32)"/>
<path d="M0 0 C0.33 0 0.66 0 1 0 C1.0270203 2.75006608 1.04684883 5.49986546 1.0625 8.25 C1.07087891 9.02730469 1.07925781 9.80460937 1.08789062 10.60546875 C1.09111328 11.35957031 1.09433594 12.11367187 1.09765625 12.890625 C1.10289307 13.58188477 1.10812988 14.27314453 1.11352539 14.98535156 C0.99405613 17.10548125 0.52667065 18.94732839 0 21 C-0.15442398 23.73101676 -0.2751799 26.45463463 -0.375 29.1875 C-0.69154805 36.26234899 -1.56095919 43.04437345 -2.91137695 49.99121094 C-3.92111792 55.24658063 -4.44845765 60.42511243 -4.69140625 65.77734375 C-5 68 -5 68 -7 70 C-6.67624114 60.75612629 -6.07522472 51.69397539 -4.5625 42.5625 C-2.9987186 33.08558496 -2.26475689 23.60477389 -1.64672852 14.02368164 C-1.57510498 12.92403076 -1.50348145 11.82437988 -1.4296875 10.69140625 C-1.37022949 9.71373291 -1.31077148 8.73605957 -1.24951172 7.72875977 C-1.00846277 5.09255226 -0.56997927 2.58314136 0 0 Z " fill="#F8DCA8" transform="translate(161,112)"/>
<path d="M0 0 C7.10297285 8.53450272 6.42789963 20.47007641 6.28125 30.9921875 C6.24985351 33.26058404 6.240237 35.52828156 6.234375 37.796875 C6.19182403 44.61599237 5.93720947 51.24420347 5 58 C4.67 58 4.34 58 4 58 C4 42.82 4 27.64 4 12 C3.34 12 2.68 12 2 12 C0.86235649 7.73383684 0 4.43513689 0 0 Z " fill="#EBA030" transform="translate(264,62)"/>
<path d="M0 0 C0.33 0 0.66 0 1 0 C1.42953956 5.90616891 0.61900675 10.92462495 -0.875 16.625 C-4.0368182 28.98850205 -4.66295025 41.69068257 -5.26953125 54.3984375 C-5.30989502 55.23060791 -5.35025879 56.06277832 -5.3918457 56.92016602 C-5.46225075 58.47750013 -5.5225137 60.0353367 -5.57104492 61.59350586 C-5.78341181 66.78341181 -5.78341181 66.78341181 -8 69 C-8.21998753 60.49381569 -7.95317 52.34257903 -6.78173828 43.91845703 C-6.18020881 39.57031868 -5.76921219 35.2558166 -5.5 30.875 C-4.79990668 20.2770356 -3.4796619 10.06782178 0 0 Z " fill="#EC9F31" transform="translate(109,96)"/>
<path d="M0 0 C8.07041305 -0.34153786 15.4983003 -0.31718161 23 3 C23.66 3.66 24.32 4.32 25 5 C27.32275177 5.40047444 29.65739357 5.7397104 32 6 C32.495 7.485 32.495 7.485 33 9 C36.00847418 10.22520264 36.00847418 10.22520264 39 11 C39 11.66 39 12.32 39 13 C40.98 13.66 42.96 14.32 45 15 C45 16.65 45 18.3 45 20 C44.53851563 19.63648437 44.07703125 19.27296875 43.6015625 18.8984375 C34.10780764 11.34920226 34.10780764 11.34920226 23 7 C23 6.34 23 5.68 23 5 C21.989375 4.896875 20.97875 4.79375 19.9375 4.6875 C13.22756227 3.8624082 6.61588222 2.36969437 0 1 C0 0.67 0 0.34 0 0 Z " fill="#FAE3B7" transform="translate(211,28)"/>
<path d="M0 0 C1.64556293 0.39695597 3.29134864 0.79299131 4.9375 1.1875 C5.948125 1.455625 6.95875 1.72375 8 2 C8 2.33 8 2.66 8 3 C6.56195268 2.88146248 5.12459 2.75462865 3.6875 2.625 C2.88699219 2.55539063 2.08648437 2.48578125 1.26171875 2.4140625 C-2 2 -2 2 -4.04760742 1.51904297 C-14.13895232 -0.74535637 -24.4088115 -0.21630487 -34.6875 -0.125 C-36.66080276 -0.11495115 -38.63411046 -0.10582867 -40.60742188 -0.09765625 C-45.40507165 -0.07579134 -50.20248036 -0.04136616 -55 0 C-42.2943745 -8.470417 -13.9781334 -3.83090554 0 0 Z " fill="#E5B568" transform="translate(226,31)"/>
<path d="M0 0 C0.66 0 1.32 0 2 0 C2.89104524 15.49428659 0.24452158 30.71815098 -2 46 C-2.33 46 -2.66 46 -3 46 C-3.30176458 36.77941567 -2.77218487 27.69009933 -2.0625 18.5 C-1.97564941 17.36643066 -1.88879883 16.23286133 -1.79931641 15.06494141 C-1.39098926 9.9891557 -0.88725204 5.01801154 0 0 Z " fill="#E3AB54" transform="translate(157,128)"/>
<path d="M0 0 C-5.0201355 3.90454983 -10.14778441 6.59026417 -16 9 C-16.33 13.95 -16.66 18.9 -17 24 C-17.33 24 -17.66 24 -18 24 C-18.33 18.06 -18.66 12.12 -19 6 C-20.32 6.33 -21.64 6.66 -23 7 C-22 5 -22 5 -19.0625 4 C-18.051875 3.67 -17.04125 3.34 -16 3 C-15.34 2.34 -14.68 1.68 -14 1 C-8.8435759 -0.63286763 -5.35419851 -1.33854963 0 0 Z " fill="#DDDED8" transform="translate(238,165)"/>
<path d="M0 0 C1.52603569 0.01006534 3.05207792 0.01918482 4.578125 0.02734375 C8.26055614 0.04904024 11.94273376 0.08336714 15.625 0.125 C15.625 0.455 15.625 0.785 15.625 1.125 C14.63657104 1.154729 14.63657104 1.154729 13.62817383 1.18505859 C-3.96769382 1.70876353 -3.96769382 1.70876353 -21.375 4.125 C-23.47910113 4.50036756 -25.58326521 4.87538244 -27.6875 5.25 C-29.25034209 5.53982806 -30.81298396 5.83075249 -32.375 6.125 C-32.045 4.805 -31.715 3.485 -31.375 2.125 C-20.80791159 0.25823891 -10.69148827 -0.1246478 0 0 Z " fill="#FEEAC3" transform="translate(192.375,26.875)"/>
<path d="M0 0 C0 2 0 2 -2.25 4.5625 C-5.36115924 7.32011841 -6.97239601 8 -11 8 C-11.33 18.89 -11.66 29.78 -12 41 C-12.33 41 -12.66 41 -13 41 C-13 29.45 -13 17.9 -13 6 C-2.5 0 -2.5 0 0 0 Z " fill="#4D4D4E" transform="translate(117,224)"/>
<path d="M0 0 C1.0859697 0.00212242 1.0859697 0.00212242 2.19387817 0.00428772 C4.48606657 0.0098455 6.77815407 0.02238992 9.0703125 0.03515625 C10.63281108 0.04017672 12.19531121 0.04473866 13.7578125 0.04882812 C17.57035085 0.05980106 21.38281462 0.07703615 25.1953125 0.09765625 C25.1953125 0.75765625 25.1953125 1.41765625 25.1953125 2.09765625 C26.1853125 2.42765625 27.1753125 2.75765625 28.1953125 3.09765625 C14.3353125 2.76765625 0.4753125 2.43765625 -13.8046875 2.09765625 C-13.8046875 1.76765625 -13.8046875 1.43765625 -13.8046875 1.09765625 C-9.17364187 0.18719898 -4.70291323 -0.03513423 0 0 Z " fill="#FCF4E0" transform="translate(189.8046875,24.90234375)"/>
<path d="M0 0 C0.33 0 0.66 0 1 0 C1.12867289 8.06350113 0.79681084 15.97497656 0 24 C0.99 24 1.98 24 3 24 C3.33 23.01 3.66 22.02 4 21 C7.47325181 19.8422494 10.36067448 19.93133348 14 20 C10.35883227 23.33773709 6.71392758 23.97864902 2 25 C2 25.66 2 26.32 2 27 C0.68 27 -0.64 27 -2 27 C-2.24908976 17.76984056 -1.68944836 9.08078495 0 0 Z " fill="#E4AF5E" transform="translate(94,200)"/>
<path d="M0 0 C1.07188003 2.73781406 1.05757929 3.84083774 0.0390625 6.65625 C-0.42757812 7.5946875 -0.89421875 8.533125 -1.375 9.5 C-3.2636694 13.27934114 -3.2636694 13.27934114 -4.5390625 17.28125 C-4.76722656 18.13203125 -4.76722656 18.13203125 -5 19 C-5.66 19.33 -6.32 19.66 -7 20 C-7.96169216 22.68399539 -8.82270888 25.33144506 -9.625 28.0625 C-9.85445313 28.82111328 -10.08390625 29.57972656 -10.3203125 30.36132812 C-10.88710193 32.23881812 -11.44444077 34.11915633 -12 36 C-12.33 36 -12.66 36 -13 36 C-13.38750411 30.05827036 -12.53456392 24.44461879 -10 19 C-9.01 18.67 -8.02 18.34 -7 18 C-7 16.02 -7 14.04 -7 12 C-6.01 12 -5.02 12 -4 12 C-3.896875 10.7625 -3.79375 9.525 -3.6875 8.25 C-3.26198318 4.7207134 -2.51887408 2.62839034 0 0 Z " fill="#FCF5DD" transform="translate(118,61)"/>
<path d="M0 0 C1.48468902 3.93937488 0.53866883 7.10988652 -0.375 11.125 C-0.65085937 12.36507812 -0.92671875 13.60515625 -1.2109375 14.8828125 C-2 18 -2 18 -3 20 C-3.34657243 22.14059443 -3.65260367 24.28782769 -3.9375 26.4375 C-4.79183543 32.66194382 -5.81644028 38.83038018 -7 45 C-7.33 45 -7.66 45 -8 45 C-8.7768185 31.4200618 -6.19024139 12.38048278 0 0 Z " fill="#E5B164" transform="translate(110,86)"/>
<path d="M0 0 C0.33 0 0.66 0 1 0 C0.13402719 14.67596017 -0.93830223 29.33713476 -2 44 C-0.35 43.34 1.3 42.68 3 42 C1.25 44 1.25 44 -1 46 C-2.32 46 -3.64 46 -5 46 C-5.042721 44.33388095 -5.04063832 42.66617115 -5 41 C-4.505 40.505 -4.505 40.505 -4 40 C-3.7950628 38.24078286 -3.65207613 36.47428164 -3.53515625 34.70703125 C-3.4582959 33.6072998 -3.38143555 32.50756836 -3.30224609 31.37451172 C-3.22312988 30.19904785 -3.14401367 29.02358398 -3.0625 27.8125 C-2.39526478 18.46482793 -1.57983528 9.24371707 0 0 Z " fill="#EAA031" transform="translate(215,122)"/>
<path d="M0 0 C0 0.33 0 0.66 0 1 C-1.53720703 1.09087891 -1.53720703 1.09087891 -3.10546875 1.18359375 C-4.46615695 1.26805026 -5.82683343 1.35269567 -7.1875 1.4375 C-7.86103516 1.47681641 -8.53457031 1.51613281 -9.22851562 1.55664062 C-12.89699102 1.78927565 -16.41694206 2.17207011 -20 3 C-20 3.99 -20 4.98 -20 6 C-20.99 6 -21.98 6 -23 6 C-23 6.99 -23 7.98 -23 9 C-25.375 11.6875 -25.375 11.6875 -28 14 C-28.66 14 -29.32 14 -30 14 C-30.33 15.98 -30.66 17.96 -31 20 C-31.33 20 -31.66 20 -32 20 C-31.75841564 12.87326144 -31.75841564 12.87326144 -29.6328125 10.42578125 C-28.13061139 9.22905166 -26.56727054 8.11014996 -25 7 C-24.67 6.34 -24.34 5.68 -24 5 C-23.34 5 -22.68 5 -22 5 C-21.9175 4.38125 -21.835 3.7625 -21.75 3.125 C-21 1 -21 1 -19.2890625 -0.12109375 C-13.46443362 -2.35751269 -5.9716703 -1.29117196 0 0 Z " fill="#EBBE76" transform="translate(198,68)"/>
<path d="M0 0 C0.33 0 0.66 0 1 0 C1 7.26 1 14.52 1 22 C4.96 21.505 4.96 21.505 9 21 C9 20.34 9 19.68 9 19 C12.96 18.505 12.96 18.505 17 18 C14.36335881 21.59541981 12.04229317 22.37465042 7.8125 23.125 C6.49185547 23.31449219 6.49185547 23.31449219 5.14453125 23.5078125 C4.08298828 23.75144531 4.08298828 23.75144531 3 24 C2.67 24.66 2.34 25.32 2 26 C1.01 26 0.02 26 -1 26 C-1.14368684 17.28299826 -0.71961582 8.68679101 0 0 Z " fill="#E9A033" transform="translate(95,198)"/>
<path d="M0 0 C0.82514784 2.83384108 1.07936233 5.16935251 0.87890625 8.109375 C0.83056641 8.86347656 0.78222656 9.61757812 0.73242188 10.39453125 C0.64831055 11.56048828 0.64831055 11.56048828 0.5625 12.75 C0.51029297 13.54277344 0.45808594 14.33554688 0.40429688 15.15234375 C0.27510676 17.10193997 0.13830035 19.05102886 0 21 C3.465 20.505 3.465 20.505 7 20 C7 19.34 7 18.68 7 18 C7.66 18 8.32 18 9 18 C9 17.34 9 16.68 9 16 C10.65 16 12.3 16 14 16 C13.34 16.33 12.68 16.66 12 17 C11.67 17.99 11.34 18.98 11 20 C6.94636242 21.79114218 3.41301921 22.40118356 -1 22 C-1.66 21.34 -2.32 20.68 -3 20 C-2.84397103 17.12965568 -2.57895169 14.40111077 -2.1875 11.5625 C-2.04344727 10.39750977 -2.04344727 10.39750977 -1.89648438 9.20898438 C-1.48658668 6.01508358 -1.02049484 3.06148453 0 0 Z " fill="#FDF2DA" transform="translate(91,208)"/>
<path d="M0 0 C0.66 0 1.32 0 2 0 C1.938125 0.78375 1.87625 1.5675 1.8125 2.375 C1.874375 3.24125 1.93625 4.1075 2 5 C2.99 5.66 3.98 6.32 5 7 C3.73160474 7.50615298 2.46016898 8.00469099 1.1875 8.5 C0.47980469 8.7784375 -0.22789062 9.056875 -0.95703125 9.34375 C-3 10 -3 10 -6 10 C-6 9.34 -6 8.68 -6 8 C-8.31 8 -10.62 8 -13 8 C-10.28087913 5.28087913 -7.80574504 5.3242533 -4.09375 4.7578125 C-1.8137346 4.17746672 -1.8137346 4.17746672 -0.71875 1.9296875 C-0.4815625 1.29289063 -0.244375 0.65609375 0 0 Z " fill="#F1EDDF" transform="translate(153,198)"/>
<path d="M0 0 C0.33 0.66 0.66 1.32 1 2 C0.48050781 2.25394531 -0.03898437 2.50789062 -0.57421875 2.76953125 C-3.70876033 4.31652312 -6.76831272 5.85782826 -9.75 7.6875 C-11.87482994 8.92698413 -13.59632085 9.55487423 -16 10 C-15.67 9.01 -15.34 8.02 -15 7 C-14.34 6.67 -13.68 6.34 -13 6 C-12.7215625 5.35675781 -12.443125 4.71351563 -12.15625 4.05078125 C-10.64319384 1.36715124 -9.40425007 1.06914734 -6.5 0.1875 C-5.30890625 -0.19341797 -5.30890625 -0.19341797 -4.09375 -0.58203125 C-2 -1 -2 -1 0 0 Z " fill="#DDE0DD" transform="translate(268,149)"/>
<path d="M0 0 C-2.90600261 1.25664978 -4.79604584 2 -8 2 C-8 2.66 -8 3.32 -8 4 C-10.06069917 5.12840628 -12.12343096 6.25278771 -14.1875 7.375 C-15.33605469 8.00148438 -16.48460937 8.62796875 -17.66796875 9.2734375 C-24.85972851 13 -24.85972851 13 -29 13 C-24.7976162 9.21785458 -17.90556785 4 -12 4 C-12 3.34 -12 2.68 -12 2 C-10.37787941 1.47026689 -8.75218416 0.95146893 -7.125 0.4375 C-6.22007812 0.14746094 -5.31515625 -0.14257812 -4.3828125 -0.44140625 C-2 -1 -2 -1 0 0 Z " fill="#E4B466" transform="translate(164,33)"/>
<path d="M0 0 C-2.34591852 2.7710688 -4.14776201 3.52059284 -7.6875 4.1875 C-8.89986328 4.42533203 -8.89986328 4.42533203 -10.13671875 4.66796875 C-11.05904297 4.83232422 -11.05904297 4.83232422 -12 5 C-12 5.66 -12 6.32 -12 7 C-13.28913487 7.67154933 -14.58140204 8.33708859 -15.875 9 C-16.59429687 9.37125 -17.31359375 9.7425 -18.0546875 10.125 C-20 11 -20 11 -22 11 C-22 10.01 -22 9.02 -22 8 C-20.68 8 -19.36 8 -18 8 C-18 7.34 -18 6.68 -18 6 C-15.33333333 4.66666667 -12.66666667 3.33333333 -10 2 C-9.319375 1.62875 -8.63875 1.2575 -7.9375 0.875 C-5.25714205 -0.33548424 -2.90107504 -0.13186705 0 0 Z " fill="#E3AE5B" transform="translate(258,148)"/>
<path d="M0 0 C0.99 0 1.98 0 3 0 C3.18463754 7.31626261 2.4697345 14.31570029 1.5 21.5625 C1.35691406 22.66658203 1.21382812 23.77066406 1.06640625 24.90820312 C0.7160201 27.6061765 0.36044731 30.3033556 0 33 C-0.33 33 -0.66 33 -1 33 C-1.36799953 23.53423442 -0.22914592 14.36126309 1 5 C0.34 5 -0.32 5 -1 5 C-0.67 3.35 -0.34 1.7 0 0 Z " fill="#656565" transform="translate(163,201)"/>
<path d="M0 0 C0.33 0 0.66 0 1 0 C1.17277822 9.54119744 1.17277822 9.54119744 0.4375 14 C-0.27975206 16.91683307 -0.27975206 16.91683307 1 19 C-0.60064843 19.53154742 -2.20568874 20.04988353 -3.8125 20.5625 C-4.70582031 20.85253906 -5.59914063 21.14257812 -6.51953125 21.44140625 C-9 22 -9 22 -12 21 C-10.71086513 20.32845067 -9.41859796 19.66291141 -8.125 19 C-7.40570313 18.62875 -6.68640625 18.2575 -5.9453125 17.875 C-4 17 -4 17 -2 17 C-2.02320313 16.443125 -2.04640625 15.88625 -2.0703125 15.3125 C-2.20011024 9.82390985 -1.53328434 5.2706649 0 0 Z " fill="#FBF5E2" transform="translate(272,128)"/>
<path d="M0 0 C1 2 1 2 0.1875 4.5625 C-0.204375 5.696875 -0.59625 6.83125 -1 8 C-1.48122276 10.31144701 -1.92633107 12.62471546 -2.33984375 14.94921875 C-3 17 -3 17 -6 20 C-5.34 14.72 -4.68 9.44 -4 4 C-3.34 4 -2.68 4 -2 4 C-1.34 2.68 -0.68 1.36 0 0 Z M-7 20 C-6.34 20.66 -5.68 21.32 -5 22 C-5.375 24.625 -5.375 24.625 -6 27 C-6.33 27 -6.66 27 -7 27 C-7 24.69 -7 22.38 -7 20 Z " fill="#F9F5E8" transform="translate(172,78)"/>
<path d="M0 0 C-1.8125 2 -1.8125 2 -4 4 C-4.99 4 -5.98 4 -7 4 C-7 4.66 -7 5.32 -7 6 C-10.63 6.33 -14.26 6.66 -18 7 C-14.53863978 4.40397984 -11.80925951 2.8933025 -7.875 1.25 C-6.82054687 0.80140625 -5.76609375 0.3528125 -4.6796875 -0.109375 C-2 -1 -2 -1 0 0 Z " fill="#FCE8C7" transform="translate(140,207)"/>
<path d="M0 0 C0.66 0.33 1.32 0.66 2 1 C1.35256836 1.53463867 0.70513672 2.06927734 0.03808594 2.62011719 C-2.52576568 5.61393913 -2.5329306 7.17946048 -2.609375 11.078125 C-2.64160156 12.23828125 -2.67382812 13.3984375 -2.70703125 14.59375 C-2.72121094 15.8003125 -2.73539062 17.006875 -2.75 18.25 C-2.77964844 19.47203125 -2.80929688 20.6940625 -2.83984375 21.953125 C-2.91052402 24.96881644 -2.96323175 27.9837355 -3 31 C-3.33 31 -3.66 31 -4 31 C-4 23.08 -4 15.16 -4 7 C-4.99 6.67 -5.98 6.34 -7 6 C-4.69 4.02 -2.38 2.04 0 0 Z " fill="#D6D8D7" transform="translate(107,225)"/>
<path d="M0 0 C4.51290803 3.33562767 6.68206814 5.33289301 8 11 C8.66 11 9.32 11 10 11 C10 12.32 10 13.64 10 15 C9.34 15 8.68 15 8 15 C8 14.34 8 13.68 8 13 C7.34 13 6.68 13 6 13 C2.3357387 9.14168125 0.39208719 5.35852494 0 0 Z " fill="#E3AA54" transform="translate(254,47)"/>
<path d="M0 0 C0.33 0 0.66 0 1 0 C1 5.28 1 10.56 1 16 C0.34 16 -0.32 16 -1 16 C-1 17.98 -1 19.96 -1 22 C-1.33 22 -1.66 22 -2 22 C-2.05454409 19.64551325 -2.0939279 17.29232125 -2.125 14.9375 C-2.14820313 13.62652344 -2.17140625 12.31554687 -2.1953125 10.96484375 C-1.99417522 6.88175701 -1.27165462 3.85000947 0 0 Z " fill="#EC9F31" transform="translate(158,112)"/>
<path d="M0 0 C5.53114786 6.50723278 6.477427 15.72459869 6 24 C5.34 23.67 4.68 23.34 4 23 C4 19.37 4 15.74 4 12 C3.34 12 2.68 12 2 12 C0.86235649 7.73383684 0 4.43513689 0 0 Z " fill="#E0A84F" transform="translate(264,62)"/>
<path d="M0 0 C0.33 0 0.66 0 1 0 C1 2.97 1 5.94 1 9 C-0.57533086 9.86883706 -2.16064509 10.71959068 -3.75 11.5625 C-4.63171875 12.03816406 -5.5134375 12.51382813 -6.421875 13.00390625 C-9.20701188 14.07998186 -10.26980214 14.06528748 -13 13 C-12.34 13 -11.68 13 -11 13 C-11 12.34 -11 11.68 -11 11 C-10.37351562 10.79246094 -9.74703125 10.58492187 -9.1015625 10.37109375 C-4.28980097 8.73500472 -4.28980097 8.73500472 -0.95703125 5.17578125 C-0.33949343 3.05177916 -0.33949343 3.05177916 0 0 Z " fill="#F7DEAB" transform="translate(269,136)"/>
<path d="M0 0 C2.9905617 4.48584256 3.12600227 8.43757589 3.09765625 13.73828125 C3.09443359 14.80498047 3.09121094 15.87167969 3.08789062 16.97070312 C3.07951172 18.07349609 3.07113281 19.17628906 3.0625 20.3125 C3.05798828 21.43462891 3.05347656 22.55675781 3.04882812 23.71289062 C3.03707313 26.4753151 3.02064077 29.23762998 3 32 C2.67 32 2.34 32 2 32 C2 25.07 2 18.14 2 11 C1.34 11 0.68 11 0 11 C0 7.37 0 3.74 0 0 Z " fill="#FCF4E4" transform="translate(273,80)"/>
<path d="M0 0 C0.33 0 0.66 0 1 0 C1.56946819 2.79988526 2.0423843 5.17084802 2 8 C0.25 10.5625 0.25 10.5625 -2 13 C-3.15504315 15.29083557 -4.06172777 17.60740581 -5 20 C-6.38228901 16.85843408 -5.91178547 15.76056055 -4.6875 12.4375 C-3 9 -3 9 -1 6 C-0.60986284 4.0103005 -0.26797351 2.00980131 0 0 Z " fill="#EAA032" transform="translate(116,74)"/>
<path d="M0 0 C-1.65 0.33 -3.3 0.66 -5 1 C-5 1.66 -5 2.32 -5 3 C-8.87684087 4.19287411 -11.91621923 5 -16 5 C-16.33 5.66 -16.66 6.32 -17 7 C-17.66 6.34 -18.32 5.68 -19 5 C-7.0430622 -2.3476874 -7.0430622 -2.3476874 0 0 Z " fill="#FCF3DF" transform="translate(157,34)"/>
<path d="M0 0 C0.33 0 0.66 0 1 0 C1.26305952 8.2425317 0.60614551 15.91191011 -1 24 C-1.33 24 -1.66 24 -2 24 C-2.3690205 7.1070615 -2.3690205 7.1070615 0 0 Z " fill="#E7B76B" transform="translate(271,112)"/>
<path d="M0 0 C2.64 0.33 5.28 0.66 8 1 C8.33 2.65 8.66 4.3 9 6 C6.36 6.33 3.72 6.66 1 7 C0.67 6.01 0.34 5.02 0 4 C0.66 3.01 1.32 2.02 2 1 C1.34 0.67 0.68 0.34 0 0 Z " fill="#EFEFEF" transform="translate(152,320)"/>
<path d="M0 0 C3.44985475 1.07064458 4.07018995 2.12634191 5.875 5.375 C7 9 7 9 6.1875 11.4375 C5.795625 11.953125 5.40375 12.46875 5 13 C2.94876752 10.94876752 2.35852882 9.72994937 1.375 7.0625 C0.98441406 6.02802734 0.98441406 6.02802734 0.5859375 4.97265625 C0 3 0 3 0 0 Z " fill="#FBE6BD" transform="translate(264,59)"/>
<path d="M0 0 C8.25552919 -0.34937193 15.2370239 0.05602712 23 3 C23 3.33 23 3.66 23 4 C15.10276444 4.48350422 7.66467297 2.67664721 0 1 C0 0.67 0 0.34 0 0 Z " fill="#FDECC3" transform="translate(211,28)"/>
<path d="M0 0 C1.86682898 3.73365796 0.12712034 8.14064554 -1 12 C-2.16260537 14.2544819 -3.41923508 15.99769777 -5 18 C-6.66201898 13.94507418 -5.20927166 11.22066185 -3.625 7.3125 C-3.16351563 6.15363281 -2.70203125 4.99476562 -2.2265625 3.80078125 C-1 1 -1 1 0 0 Z " fill="#E7B466" transform="translate(117,68)"/>
<path d="M0 0 C0.33 0 0.66 0 1 0 C1.0875127 3.22899426 1.14056146 6.45768116 1.1875 9.6875 C1.22520508 11.05551758 1.22520508 11.05551758 1.26367188 12.45117188 C1.31848438 17.47565155 1.28571911 20.90363103 -2 25 C-2.99 24.67 -3.98 24.34 -5 24 C-4.01 23.67 -3.02 23.34 -2 23 C-2 21.35 -2 19.7 -2 18 C-1.34 18 -0.68 18 0 18 C0 12.06 0 6.12 0 0 Z " fill="#DEA546" transform="translate(268,120)"/>
<path d="M0 0 C0 0.33 0 0.66 0 1 C-1.00160156 1.19335938 -2.00320312 1.38671875 -3.03515625 1.5859375 C-4.37763508 1.84880049 -5.72008127 2.11183026 -7.0625 2.375 C-7.71927734 2.50132813 -8.37605469 2.62765625 -9.05273438 2.7578125 C-12.37090808 3.41163983 -15.50596855 4.15722485 -18.74609375 5.1640625 C-21.80355481 5.94953269 -23.13138174 6.1474473 -26 5 C-17.15498672 1.87737626 -9.45574794 -0.19297445 0 0 Z " fill="#DAA44A" transform="translate(182,30)"/>
<path d="M0 0 C5.349198 1.53833145 10.0202099 2.89182957 14 7 C14 7.99 14 8.98 14 10 C12.1875 9.75 12.1875 9.75 10 9 C9.54625 8.38125 9.0925 7.7625 8.625 7.125 C6.51320336 4.36341978 4.1000498 3.48263251 1 2 C0.67 1.34 0.34 0.68 0 0 Z " fill="#E3A340" transform="translate(240,39)"/>
<path d="M0 0 C-2.45620851 1.17133058 -4.91474917 2.33721722 -7.375 3.5 C-8.07367188 3.83386719 -8.77234375 4.16773438 -9.4921875 4.51171875 C-14.7734375 7 -14.7734375 7 -17 7 C-17 6.34 -17 5.68 -17 5 C-15.58671871 4.18162558 -14.16921654 3.37053781 -12.75 2.5625 C-11.56664063 1.88380859 -11.56664063 1.88380859 -10.359375 1.19140625 C-6.51541709 -0.74966521 -4.14944008 -1.3337486 0 0 Z " fill="#DFA74F" transform="translate(135,208)"/>
<path d="M0 0 C0 0.66 0 1.32 0 2 C-1.32 2 -2.64 2 -4 2 C-4 2.99 -4 3.98 -4 5 C-9.625 8 -9.625 8 -13 8 C-13 7.34 -13 6.68 -13 6 C-12.401875 5.731875 -11.80375 5.46375 -11.1875 5.1875 C-9.01474908 4.00800664 -7.69381635 2.770808 -6 1 C-4 0 -4 0 0 0 Z " fill="#E5A239" transform="translate(240,154)"/>
<path d="M0 0 C1.05916608 2.72173587 1.05253196 3.84927538 0.07421875 6.65625 C-0.61220703 8.06390625 -0.61220703 8.06390625 -1.3125 9.5 C-1.76238281 10.4384375 -2.21226563 11.376875 -2.67578125 12.34375 C-3.11277344 13.2203125 -3.54976563 14.096875 -4 15 C-4.38542969 15.7734375 -4.77085938 16.546875 -5.16796875 17.34375 C-5.44253906 17.8903125 -5.71710938 18.436875 -6 19 C-6 16.69 -6 14.38 -6 12 C-5.34 12 -4.68 12 -4 12 C-3.896875 10.7625 -3.79375 9.525 -3.6875 8.25 C-3.26198318 4.7207134 -2.51887408 2.62839034 0 0 Z " fill="#FDEECB" transform="translate(118,61)"/>
<path d="M0 0 C3.06273831 -0.05410136 6.12451452 -0.09372225 9.1875 -0.125 C10.48397461 -0.15013672 10.48397461 -0.15013672 11.80664062 -0.17578125 C16.32208103 -0.21038233 19.90081483 -0.15567916 24 2 C24 2.66 24 3.32 24 4 C21.03 3.505 21.03 3.505 18 3 C18 2.34 18 1.68 18 1 C12.06 1 6.12 1 0 1 C0 0.67 0 0.34 0 0 Z " fill="#EBA030" transform="translate(184,66)"/>
<path d="M0 0 C2.31 0 4.62 0 7 0 C7.33 0.99 7.66 1.98 8 3 C7.13375 3.144375 6.2675 3.28875 5.375 3.4375 C3.704375 3.7159375 3.704375 3.7159375 2 4 C0 4.33333333 -2 4.66666667 -4 5 C-3.67 4.34 -3.34 3.68 -3 3 C-2.34 3 -1.68 3 -1 3 C-0.67 2.01 -0.34 1.02 0 0 Z " fill="#F6F4ED" transform="translate(140,206)"/>
<path d="M0 0 C3.3 0.99 6.6 1.98 10 3 C6.71299843 4.64350079 4.52069985 5.41321669 1 6 C-0.0625 4.125 -0.0625 4.125 -1 2 C-0.67 1.34 -0.34 0.68 0 0 Z " fill="#DCDCDC" transform="translate(132,313)"/>
<path d="M0 0 C-0.33 0.66 -0.66 1.32 -1 2 C-1.99 2 -2.98 2 -4 2 C-4 2.66 -4 3.32 -4 4 C-5.98 4 -7.96 4 -10 4 C-10 3.01 -10 2.02 -10 1 C-8.71073008 0.63720544 -7.41846728 0.28503302 -6.125 -0.0625 C-5.40570313 -0.25972656 -4.68640625 -0.45695313 -3.9453125 -0.66015625 C-2 -1 -2 -1 0 0 Z " fill="#FCEED1" transform="translate(128,214)"/>
<path d="M0 0 C0.33 0 0.66 0 1 0 C1.22428282 7.94957992 0.95403042 15.27111181 -1 23 C-1.33 23 -1.66 23 -2 23 C-2.02687279 21.18757948 -2.04633715 19.37504767 -2.0625 17.5625 C-2.07410156 16.55316406 -2.08570312 15.54382813 -2.09765625 14.50390625 C-2 12 -2 12 -1 11 C-0.76636119 9.15108054 -0.58696365 7.29511969 -0.4375 5.4375 C-0.35371094 4.42558594 -0.26992187 3.41367188 -0.18359375 2.37109375 C-0.12300781 1.58863281 -0.06242187 0.80617187 0 0 Z " fill="#FEE9C1" transform="translate(95,176)"/>
<path d="M0 0 C0.66 1.32 1.32 2.64 2 4 C-2.95 3.01 -7.9 2.02 -13 1 C-13 0.67 -13 0.34 -13 0 C-8.40744315 -0.82666023 -4.51752993 -1.36576486 0 0 Z " fill="#FBF5E8" transform="translate(231,27)"/>
<path d="M0 0 C0.33 0 0.66 0 1 0 C1.25 6.625 1.25 6.625 -1 10 C-3.1640625 10.51171875 -3.1640625 10.51171875 -5.625 10.6875 C-6.44226563 10.75324219 -7.25953125 10.81898438 -8.1015625 10.88671875 C-8.72804687 10.92410156 -9.35453125 10.96148437 -10 11 C-7.76025879 9.17502568 -6.10452361 8.03160016 -3.3125 7.1875 C-2.1678125 6.5996875 -2.1678125 6.5996875 -1 6 C-0.10169161 2.94727535 -0.10169161 2.94727535 0 0 Z " fill="#F4D69E" transform="translate(152,193)"/>
<path d="M0 0 C1.32 0.33 2.64 0.66 4 1 C3.27683594 1.77923828 3.27683594 1.77923828 2.5390625 2.57421875 C-2.1876792 7.69507421 -2.1876792 7.69507421 -5 14 C-6.0536628 10.83901159 -6.21514551 9.99112741 -5 7 C-3.66666667 6 -2.33333333 5 -1 4 C-0.20376178 1.90584196 -0.20376178 1.90584196 0 0 Z " fill="#F7D9A8" transform="translate(124,54)"/>
<path d="M0 0 C2.97 0.33 5.94 0.66 9 1 C8.67 2.65 8.34 4.3 8 6 C4.08597051 4.73058503 2.20927127 3.48832306 0 0 Z " fill="#3E3E3E" transform="translate(124,306)"/>
<path d="M0 0 C0.33 0 0.66 0 1 0 C1.02689216 1.47906892 1.04634621 2.95827483 1.0625 4.4375 C1.07410156 5.26121094 1.08570313 6.08492187 1.09765625 6.93359375 C1 9 1 9 0 10 C-0.36760731 12.32817964 -0.70241581 14.6618385 -1 17 C-1.33 17 -1.66 17 -2 17 C-2.22245393 15.39773045 -2.42746669 13.79303233 -2.625 12.1875 C-2.74101562 11.29417969 -2.85703125 10.40085938 -2.9765625 9.48046875 C-3 7 -3 7 -1 4 C-0.36707617 1.88719655 -0.36707617 1.88719655 0 0 Z " fill="#424242" transform="translate(277,186)"/>
<path d="M0 0 C0.33 0 0.66 0 1 0 C1 5.11513445 0.94340406 10.15085336 0.5 15.25 C0.4071875 16.32765625 0.314375 17.4053125 0.21875 18.515625 C0.1465625 19.33546875 0.074375 20.1553125 0 21 C-0.33 21 -0.66 21 -1 21 C-1.0270203 18.24993392 -1.04684883 15.50013454 -1.0625 12.75 C-1.07087891 11.97269531 -1.07925781 11.19539062 -1.08789062 10.39453125 C-1.09111328 9.64042969 -1.09433594 8.88632813 -1.09765625 8.109375 C-1.10289307 7.41811523 -1.10812988 6.72685547 -1.11352539 6.01464844 C-0.99437971 3.90026102 -0.57618237 2.03358485 0 0 Z " fill="#FDF6E0" transform="translate(161,129)"/>
<path d="M0 0 C-2.85306797 2.32472205 -5.54074837 3.7508258 -9 5 C-9 3.68 -9 2.36 -9 1 C-5.64919071 -1.10976881 -3.77897651 -1.0497157 0 0 Z " fill="#E2E6EA" transform="translate(134,215)"/>
<path d="M0 0 C-1.875 3.875 -1.875 3.875 -3 5 C-4.51469448 5.23192865 -6.03754562 5.41215238 -7.5625 5.5625 C-8.80193359 5.68818359 -8.80193359 5.68818359 -10.06640625 5.81640625 C-11.02353516 5.90728516 -11.02353516 5.90728516 -12 6 C-10.66144904 3.32289809 -9.27941912 3.04870906 -6.5625 1.875 C-5.75941406 1.52179688 -4.95632812 1.16859375 -4.12890625 0.8046875 C-2 0 -2 0 0 0 Z " fill="#FAE1B4" transform="translate(224,165)"/>
<path d="M0 0 C1 4 1 4 0 6 C0.66 6.33 1.32 6.66 2 7 C1.67 7.99 1.34 8.98 1 10 C-1.5625 11.1875 -1.5625 11.1875 -4 12 C-4 11.34 -4 10.68 -4 10 C-3.34 10 -2.68 10 -2 10 C-1.34 6.7 -0.68 3.4 0 0 Z " fill="#4F4F4F" transform="translate(211,257)"/>
<path d="M0 0 C1.65 0 3.3 0 5 0 C5.12375 0.969375 5.2475 1.93875 5.375 2.9375 C5.58125 3.948125 5.7875 4.95875 6 6 C6.66 6.33 7.32 6.66 8 7 C8 7.99 8 8.98 8 10 C7.34 10 6.68 10 6 10 C4.74609375 8.3203125 4.74609375 8.3203125 3.4375 6.125 C2.78587891 5.04605469 2.78587891 5.04605469 2.12109375 3.9453125 C1.37555047 2.65165204 0.66774129 1.33548258 0 0 Z " fill="#FAE3BE" transform="translate(256,48)"/>
<path d="M0 0 C0.33 1.32 0.66 2.64 1 4 C-2.63 4.33 -6.26 4.66 -10 5 C-3.33333333 0 -3.33333333 0 0 0 Z " fill="#FAE2B1" transform="translate(132,209)"/>
<path d="M0 0 C-0.66 0 -1.32 0 -2 0 C-2.66 1.32 -3.32 2.64 -4 4 C-6.31 3.67 -8.62 3.34 -11 3 C-4.23255814 -1.51162791 -4.23255814 -1.51162791 0 0 Z " fill="#262625" transform="translate(164,204)"/>
<path d="M0 0 C1 2 1 2 0.0625 5.125 C-0.288125 6.07375 -0.63875 7.0225 -1 8 C-1.99 8 -2.98 8 -4 8 C-4 6.68 -4 5.36 -4 4 C-3.34 4 -2.68 4 -2 4 C-1.34 2.68 -0.68 1.36 0 0 Z " fill="#FEF0D0" transform="translate(172,78)"/>
<path d="M0 0 C-2.38573379 1.89213369 -4.07175348 3.02391783 -7 4 C-7 3.34 -7 2.68 -7 2 C-7.66 1.34 -8.32 0.68 -9 0 C-5.52176885 -1.15941038 -3.54104422 -0.70820884 0 0 Z " fill="#E3E8E4" transform="translate(238,165)"/>
<path d="M0 0 C0 2 0 2 -1.0625 3.625 C-3.96338818 5.68369484 -6.54480057 5.19557733 -10 5 C-8.28489314 1.56978628 -3.75681361 0 0 0 Z " fill="#525253" transform="translate(117,224)"/>
<path d="M0 0 C-1 3 -1 3 -3.25 4.1875 C-5.99791147 4.99938294 -8.15447889 5.16260121 -11 5 C-10.4225 4.731875 -9.845 4.46375 -9.25 4.1875 C-6.94603902 3.05815166 -6.94603902 3.05815166 -4.9375 1.375 C-3 0 -3 0 0 0 Z " fill="#FDF0D2" transform="translate(235,161)"/>
<path d="M0 0 C0.66 0.33 1.32 0.66 2 1 C0.76055724 1.86941494 -0.49207059 2.72005457 -1.75 3.5625 C-2.44609375 4.03816406 -3.1421875 4.51382813 -3.859375 5.00390625 C-6 6 -6 6 -8.265625 5.65234375 C-8.83796875 5.43707031 -9.4103125 5.22179687 -10 5 C-8.38007835 4.13624104 -6.75388139 3.28424146 -5.125 2.4375 C-4.22007812 1.96183594 -3.31515625 1.48617187 -2.3828125 0.99609375 C-1.20332031 0.50302734 -1.20332031 0.50302734 0 0 Z " fill="#F3D094" transform="translate(234,159)"/>
<path d="M0 0 C0.33 0.99 0.66 1.98 1 3 C-1.17424117 5.50037734 -2.73045798 6.43628586 -6 7 C-4.60667426 3.63279613 -3.0210714 2.0140476 0 0 Z " fill="#E6B767" transform="translate(134,47)"/>
<path d="M0 0 C0 1.65 0 3.3 0 5 C-0.99 5 -1.98 5 -3 5 C-3 4.34 -3 3.68 -3 3 C-3.99 2.67 -4.98 2.34 -6 2 C-2.25 0 -2.25 0 0 0 Z " fill="#3C3C39" transform="translate(267,152)"/>
<path d="M0 0 C-0.33 0.66 -0.66 1.32 -1 2 C-3.3140622 2.73075648 -5.64828869 3.40138258 -8 4 C-7 1 -7 1 -5.125 -0.25 C-3 -1 -3 -1 0 0 Z " fill="#E5A243" transform="translate(184,68)"/>
<path d="M0 0 C0.99 0 1.98 0 3 0 C3 0.99 3 1.98 3 3 C2.01 3 1.02 3 0 3 C-0.33 4.65 -0.66 6.3 -1 8 C-1.93065133 5.39417629 -2.14917407 4.35801776 -1.0625 1.75 C-0.711875 1.1725 -0.36125 0.595 0 0 Z " fill="#FDF1E2" transform="translate(124,51)"/>
<path d="M0 0 C0 0.66 0 1.32 0 2 C-2.64738916 3.4606285 -3.89448334 4 -7 4 C-6.67 3.01 -6.34 2.02 -6 1 C-4 0 -4 0 0 0 Z " fill="#E2AF5F" transform="translate(142,203)"/>
<path d="M0 0 C0 0.99 0 1.98 0 3 C-0.66 3 -1.32 3 -2 3 C-2.66 4.32 -3.32 5.64 -4 7 C-4.33 7 -4.66 7 -5 7 C-5 5.35 -5 3.7 -5 2 C-3.35 1.34 -1.7 0.68 0 0 Z " fill="#D8D8D8" transform="translate(206,269)"/>
<path d="M0 0 C0.66 0.33 1.32 0.66 2 1 C1.01 2.32 0.02 3.64 -1 5 C-2.32 4.34 -3.64 3.68 -5 3 C-2.625 1.4375 -2.625 1.4375 0 0 Z " fill="#2C302E" transform="translate(234,167)"/>
<path d="M0 0 C-1.65 0.33 -3.3 0.66 -5 1 C-5 1.66 -5 2.32 -5 3 C-6.32 3.33 -7.64 3.66 -9 4 C-8.67 2.68 -8.34 1.36 -8 0 C-4.71303767 -0.79953138 -3.28976808 -1.09658936 0 0 Z " fill="#FCE5BC" transform="translate(157,34)"/>
</svg>
